<?xml version="1.0" encoding="UTF-8"?>
<svg xmlns="http://www.w3.org/2000/svg" xmlns:xlink="http://www.w3.org/1999/xlink" width="30px" height="30px" viewBox="0 0 30 30" version="1.1">
<g id="surface1">
<path fill="#00FD73" d="M 6.230469 14.265625 C 6.230469 13.929688 6.363281 13.605469 6.605469 13.367188 C 6.84375 13.128906 7.167969 12.996094 7.507812 12.996094 L 9.621094 13.003906 C 10.324219 13.003906 10.894531 13.574219 10.894531 14.277344 L 10.894531 22.277344 C 11.132812 22.207031 11.4375 22.132812 11.773438 22.054688 C 12.253906 21.941406 12.589844 21.511719 12.589844 21.019531 L 12.589844 11.097656 C 12.589844 10.394531 13.160156 9.824219 13.863281 9.824219 L 15.984375 9.824219 C 16.6875 9.824219 17.253906 10.394531 17.253906 11.097656 L 17.253906 20.308594 C 17.253906 20.308594 17.785156 20.09375 18.304688 19.875 C 18.695312 19.707031 18.953125 19.324219 18.953125 18.898438 L 18.953125 7.914062 C 18.953125 7.210938 19.519531 6.644531 20.222656 6.644531 L 22.34375 6.644531 C 23.046875 6.644531 23.617188 7.210938 23.617188 7.914062 L 23.617188 16.957031 C 25.453125 15.625 27.316406 14.023438 28.796875 12.097656 C 29.230469 11.53125 29.351562 10.78125 29.121094 10.105469 C 27.070312 4.132812 21.492188 0.0898438 15.175781 0 C 6.867188 -0.109375 0 6.671875 0 14.984375 C -0.0078125 17.613281 0.679688 20.199219 1.988281 22.480469 C 2.359375 23.117188 3.0625 23.480469 3.796875 23.414062 C 4.199219 23.378906 4.695312 23.332031 5.289062 23.261719 C 5.824219 23.199219 6.230469 22.746094 6.230469 22.207031 L 6.230469 14.265625 "/>
<path fill="#00FD73" d="M 6.183594 27.101562 C 10.742188 30.414062 16.773438 30.890625 21.792969 28.335938 C 26.816406 25.777344 29.976562 20.617188 29.976562 14.984375 C 29.976562 14.636719 29.960938 14.296875 29.9375 13.957031 C 24.464844 22.121094 14.359375 25.9375 6.183594 27.101562 "/>
</g>
</svg>
